<svg width="20" height="27" viewBox="0 0 20 27" fill="none" xmlns="http://www.w3.org/2000/svg">
<path d="M18.992 6.344C19.2693 6.87733 19.2587 7.208 18.96 7.336C18.6613 7.50667 18.32 7.44267 17.936 7.144L14.448 2.056C14.192 1.736 14.2347 1.43733 14.576 1.16C14.896 0.882666 15.184 0.936 15.44 1.32L18.992 6.344ZM1.936 3.368C1.91467 6.056 1.904 8.552 1.904 10.856C1.904 13.1387 1.92533 15.2293 1.968 17.128C2.032 19.496 2.39467 21.2133 3.056 22.28C3.76 23.3467 5.072 24.0827 6.992 24.488C8.93333 24.936 10.9707 24.5093 13.104 23.208C14.1493 22.568 15.0453 21.7787 15.792 20.84C16.5387 19.88 17.1147 18.7707 17.52 17.512C17.7333 17.1067 18.0107 16.9573 18.352 17.064C18.6293 17.1493 18.768 17.448 18.768 17.96C18.576 18.6213 18.3307 19.2507 18.032 19.848C17.7333 20.424 17.392 20.9787 17.008 21.512C16.6027 22.0453 16.1653 22.536 15.696 22.984C15.2267 23.432 14.7147 23.8587 14.16 24.264C13.072 25.032 11.824 25.544 10.416 25.8C9.02933 26.0773 7.48267 26.024 5.776 25.64C4.09067 25.2347 2.84267 24.3813 2.032 23.08C1.2 21.8 0.741334 19.88 0.656 17.32C0.634667 15.3573 0.613334 13.2133 0.592 10.888C0.592 8.56267 0.602667 6.056 0.624001 3.368C0.709334 2.89867 0.944 2.64267 1.328 2.6C1.62667 2.57867 1.82933 2.83467 1.936 3.368ZM14.768 9.096C15.0027 9.45867 14.96 9.768 14.64 10.024C14.2773 10.28 13.968 10.2267 13.712 9.864L9.68 4.424C9.424 3.86933 9.44533 3.47467 9.744 3.24C10 3.02667 10.3093 3.13333 10.672 3.56L14.768 9.096Z" fill="black"/>
</svg>
