<svg width="213" height="29" viewBox="0 0 213 29" fill="none" xmlns="http://www.w3.org/2000/svg">
<path d="M18.992 7.344C19.2693 7.87733 19.2587 8.208 18.96 8.336C18.6613 8.50667 18.32 8.44267 17.936 8.144L14.448 3.056C14.192 2.736 14.2347 2.43733 14.576 2.16C14.896 1.88267 15.184 1.936 15.44 2.32L18.992 7.344ZM1.936 4.368C1.91467 7.056 1.904 9.552 1.904 11.856C1.904 14.1387 1.92533 16.2293 1.968 18.128C2.032 20.496 2.39467 22.2133 3.056 23.28C3.76 24.3467 5.072 25.0827 6.992 25.488C8.93333 25.936 10.9707 25.5093 13.104 24.208C14.1493 23.568 15.0453 22.7787 15.792 21.84C16.5387 20.88 17.1147 19.7707 17.52 18.512C17.7333 18.1067 18.0107 17.9573 18.352 18.064C18.6293 18.1493 18.768 18.448 18.768 18.96C18.576 19.6213 18.3307 20.2507 18.032 20.848C17.7333 21.424 17.392 21.9787 17.008 22.512C16.6027 23.0453 16.1653 23.536 15.696 23.984C15.2267 24.432 14.7147 24.8587 14.16 25.264C13.072 26.032 11.824 26.544 10.416 26.8C9.02933 27.0773 7.48267 27.024 5.776 26.64C4.09067 26.2347 2.84267 25.3813 2.032 24.08C1.2 22.8 0.741334 20.88 0.656 18.32C0.634667 16.3573 0.613334 14.2133 0.592 11.888C0.592 9.56267 0.602667 7.056 0.624001 4.368C0.709334 3.89867 0.944 3.64267 1.328 3.6C1.62667 3.57867 1.82933 3.83467 1.936 4.368ZM14.768 10.096C15.0027 10.4587 14.96 10.768 14.64 11.024C14.2773 11.28 13.968 11.2267 13.712 10.864L9.68 5.424C9.424 4.86933 9.44533 4.47467 9.744 4.24C10 4.02667 10.3093 4.13333 10.672 4.56L14.768 10.096ZM34.704 11.952C34.448 11.9733 33.8507 12.0053 32.912 12.048C31.9733 12.0907 30.6827 12.1653 29.04 12.272C28.5493 12.272 28.304 12.112 28.304 11.792C28.2827 11.472 28.4853 11.1947 28.912 10.96C32.304 10.768 34.3307 10.672 34.992 10.672C35.3547 9.28533 35.6427 7.96267 35.856 6.704C36.0907 5.44533 36.2507 4.28267 36.336 3.216C36.4 2.832 36.592 2.64 36.912 2.64C37.2107 2.64 37.4027 2.85333 37.488 3.28C37.4453 4.32533 37.328 5.46667 37.136 6.704C36.9653 7.94133 36.7093 9.25333 36.368 10.64C40.2507 10.576 42.7787 11.1733 43.952 12.432C45.0827 13.6907 45.712 15.2267 45.84 17.04C45.9467 18.8747 45.808 20.4853 45.424 21.872C45.0827 23.2587 44.56 24.4213 43.856 25.36C43.1307 26.2987 42.4267 27.0027 41.744 27.472C41.0613 27.9413 40.4213 27.9413 39.824 27.472C38.6933 25.9787 38.256 25.072 38.512 24.752C38.7467 24.432 39.1093 24.3893 39.6 24.624L40.784 26.448C41.488 26.0213 42.128 25.4347 42.704 24.688C43.0027 24.3253 43.28 23.8773 43.536 23.344C43.792 22.7893 43.9947 22.1707 44.144 21.488C44.3147 20.8053 44.432 20.0907 44.496 19.344C44.5813 18.5973 44.6027 17.8293 44.56 17.04C44.4533 15.44 43.8987 14.16 42.896 13.2C41.8933 12.2613 39.632 11.824 36.112 11.888C35.1093 16.5813 33.6693 20.9547 31.792 25.008C31.344 25.3493 31.024 25.4773 30.832 25.392C30.6187 25.328 30.544 24.9973 30.608 24.4C32.4213 20.56 33.7867 16.4107 34.704 11.952ZM55.28 11.984C55.664 12.4533 55.7707 12.8267 55.6 13.104C55.408 13.3173 55.12 13.36 54.736 13.232L45.296 6.256C44.976 5.82933 44.88 5.49867 45.008 5.264C45.136 5.008 45.456 4.98667 45.968 5.2L55.28 11.984ZM62.16 22.192C62.7147 20.5067 63.2373 18.8107 63.728 17.104C64.24 15.376 64.7307 13.6373 65.2 11.888C65.648 10.1173 66.0853 8.45333 66.512 6.896C66.9387 5.31733 67.3547 3.84533 67.76 2.48C67.952 2.07467 68.2613 1.88267 68.688 1.904C69.136 1.968 69.3067 2.27733 69.2 2.832C68.2187 6.58667 67.3653 9.78667 66.64 12.432C65.9147 15.0773 65.3173 17.168 64.848 18.704C66 16.6987 67.088 15.3653 68.112 14.704C69.1147 14.064 70.0533 13.7653 70.928 13.808C71.8027 13.872 72.5173 14.128 73.072 14.576C73.5627 15.0027 73.9253 15.5787 74.16 16.304C74.3947 17.0507 74.5547 18.192 74.64 19.728C74.6827 20.5173 74.7147 21.1787 74.736 21.712C74.7787 22.2453 74.8213 22.6613 74.864 22.96C74.9493 23.6 75.2267 24.208 75.696 24.784C76.1653 25.3813 76.976 25.712 78.128 25.776C79.2587 25.84 80.1547 25.6373 80.816 25.168C81.1147 24.9333 81.424 24.6453 81.744 24.304C82.0853 23.9627 82.416 23.5893 82.736 23.184C83.376 22.416 83.8987 21.4347 84.304 20.24C84.496 19.664 84.6987 18.9493 84.912 18.096C85.1467 17.2213 85.3813 16.2187 85.616 15.088C85.8293 14.576 86.1173 14.3413 86.48 14.384C86.7787 14.448 86.9387 14.7467 86.96 15.28C86.704 16.496 86.4587 17.5733 86.224 18.512C85.9893 19.4293 85.7653 20.1973 85.552 20.816C85.36 21.4347 85.1147 22.0107 84.816 22.544C84.5387 23.0773 84.2187 23.568 83.856 24.016C83.4933 24.4853 83.1093 24.912 82.704 25.296C82.2987 25.6587 81.8827 25.9893 81.456 26.288C80.56 26.8427 79.3973 27.0773 77.968 26.992C76.496 26.9067 75.4187 26.4693 74.736 25.68C74.032 24.912 73.6267 24.1227 73.52 23.312C73.456 22.928 73.4027 22.448 73.36 21.872C73.3173 21.2747 73.2747 20.6027 73.232 19.856C73.1467 18.3413 73.0187 17.264 72.848 16.624C72.6987 16.0053 72.176 15.5467 71.28 15.248C70.4053 14.9493 69.3813 15.28 68.208 16.24C67.6107 16.7093 67.0133 17.4347 66.416 18.416C65.84 19.376 65.264 20.6027 64.688 22.096C63.5147 25.0613 62.5973 26.576 61.936 26.64C61.36 26.5547 61.1787 26.1173 61.392 25.328C61.4773 24.3893 61.7333 23.344 62.16 22.192ZM119.568 4.976C119.739 5.40267 119.675 5.70133 119.376 5.872C119.077 6.04267 118.768 5.968 118.448 5.648L115.536 1.584C115.323 1.11467 115.344 0.794666 115.6 0.623999C115.813 0.474666 116.112 0.506666 116.496 0.719999L119.568 4.976ZM116.208 5.936C116.357 6.384 116.315 6.69333 116.08 6.864C115.867 7.03467 115.557 6.98133 115.152 6.704L112.208 2.352C112.08 1.88267 112.165 1.56267 112.464 1.392C112.784 1.24267 113.083 1.37067 113.36 1.776L116.208 5.936ZM104.208 14.576C103.931 13.808 103.643 13.0187 103.344 12.208C103.067 11.376 102.8 10.5333 102.544 9.68L93.296 9.904C92.6773 9.79733 92.368 9.584 92.368 9.264C92.368 8.90133 92.6453 8.656 93.2 8.528L102.16 8.272C101.947 7.504 101.723 6.672 101.488 5.776C101.253 4.88 101.008 3.90933 100.752 2.864C100.624 2.24533 100.763 1.89333 101.168 1.808C101.552 1.70133 101.861 1.968 102.096 2.608C102.373 3.67467 102.629 4.67733 102.864 5.616C103.099 6.55467 103.323 7.42933 103.536 8.24L114.544 8.208C114.971 8.35733 115.205 8.58133 115.248 8.88C115.248 9.136 115.013 9.36 114.544 9.552L103.952 9.584C104.229 10.5013 104.507 11.376 104.784 12.208C105.083 13.04 105.371 13.8293 105.648 14.576L113.36 14.608C113.893 14.7573 114.128 15.0027 114.064 15.344C113.957 15.6853 113.712 15.92 113.328 16.048L106.256 15.952C106.555 16.6347 106.853 17.296 107.152 17.936C107.451 18.5547 107.749 19.152 108.048 19.728C108.197 20.2187 108.123 20.5493 107.824 20.72C107.525 20.8693 107.237 20.7627 106.96 20.4C106.576 19.7173 106.203 19.0027 105.84 18.256C105.477 17.5093 105.136 16.7413 104.816 15.952L93.2 16.4C92.7093 16.2933 92.432 16.0693 92.368 15.728C92.2613 15.3653 92.4747 15.12 93.008 14.992L104.208 14.576ZM97.84 22.256C98.0107 24.2613 98.9707 25.6053 100.72 26.288C101.872 26.8 103.877 27.0347 106.736 26.992C107.269 27.2693 107.419 27.6107 107.184 28.016C106.928 28.336 106.128 28.4853 104.784 28.464C104.123 28.4213 103.397 28.336 102.608 28.208C101.819 28.1013 100.987 27.952 100.112 27.76C97.808 26.736 96.6133 24.9227 96.528 22.32C96.6133 21.8507 96.816 21.616 97.136 21.616C97.4133 21.616 97.648 21.8293 97.84 22.256ZM126.16 22.192C126.715 20.5067 127.237 18.8107 127.728 17.104C128.24 15.376 128.731 13.6373 129.2 11.888C129.648 10.1173 130.085 8.45333 130.512 6.896C130.939 5.31733 131.355 3.84533 131.76 2.48C131.952 2.07467 132.261 1.88267 132.688 1.904C133.136 1.968 133.307 2.27733 133.2 2.832C132.219 6.58667 131.365 9.78667 130.64 12.432C129.915 15.0773 129.317 17.168 128.848 18.704C130 16.6987 131.088 15.3653 132.112 14.704C133.115 14.064 134.053 13.7653 134.928 13.808C135.803 13.872 136.517 14.128 137.072 14.576C137.563 15.0027 137.925 15.5787 138.16 16.304C138.395 17.0507 138.555 18.192 138.64 19.728C138.683 20.5173 138.715 21.1787 138.736 21.712C138.779 22.2453 138.821 22.6613 138.864 22.96C138.949 23.6 139.227 24.208 139.696 24.784C140.165 25.3813 140.976 25.712 142.128 25.776C143.259 25.84 144.155 25.6373 144.816 25.168C145.115 24.9333 145.424 24.6453 145.744 24.304C146.085 23.9627 146.416 23.5893 146.736 23.184C147.376 22.416 147.899 21.4347 148.304 20.24C148.496 19.664 148.699 18.9493 148.912 18.096C149.147 17.2213 149.381 16.2187 149.616 15.088C149.829 14.576 150.117 14.3413 150.48 14.384C150.779 14.448 150.939 14.7467 150.96 15.28C150.704 16.496 150.459 17.5733 150.224 18.512C149.989 19.4293 149.765 20.1973 149.552 20.816C149.36 21.4347 149.115 22.0107 148.816 22.544C148.539 23.0773 148.219 23.568 147.856 24.016C147.493 24.4853 147.109 24.912 146.704 25.296C146.299 25.6587 145.883 25.9893 145.456 26.288C144.56 26.8427 143.397 27.0773 141.968 26.992C140.496 26.9067 139.419 26.4693 138.736 25.68C138.032 24.912 137.627 24.1227 137.52 23.312C137.456 22.928 137.403 22.448 137.36 21.872C137.317 21.2747 137.275 20.6027 137.232 19.856C137.147 18.3413 137.019 17.264 136.848 16.624C136.699 16.0053 136.176 15.5467 135.28 15.248C134.405 14.9493 133.381 15.28 132.208 16.24C131.611 16.7093 131.013 17.4347 130.416 18.416C129.84 19.376 129.264 20.6027 128.688 22.096C127.515 25.0613 126.597 26.576 125.936 26.64C125.36 26.5547 125.179 26.1173 125.392 25.328C125.477 24.3893 125.733 23.344 126.16 22.192ZM177.488 4.944C178.896 5.02933 179.632 5.25333 179.696 5.616C179.76 5.95733 179.664 6.27733 179.408 6.576C178.981 6.85333 178.203 7.22667 177.072 7.696C175.941 8.16533 174.48 8.72 172.688 9.36C172.283 9.44533 172.005 9.34933 171.856 9.072C171.685 8.77333 171.835 8.41067 172.304 7.984L177.008 6.288L161.168 5.328C160.528 5.09333 160.261 4.79467 160.368 4.432C160.453 4.09067 160.741 3.888 161.232 3.824L177.488 4.944ZM163.024 21.008C163.216 23.7173 165.019 25.3493 168.432 25.904C169.051 25.9893 169.627 26.0533 170.16 26.096C170.715 26.1387 171.259 26.1493 171.792 26.128C172.795 26.0853 173.968 25.8933 175.312 25.552C175.995 25.4027 176.549 25.2853 176.976 25.2C177.403 25.1147 177.723 25.0613 177.936 25.04C178.341 25.0187 178.608 25.1467 178.736 25.424C178.864 25.7227 178.693 26.0747 178.224 26.48C177.115 26.8427 176.037 27.12 174.992 27.312C174.48 27.3973 173.957 27.4613 173.424 27.504C172.912 27.568 172.389 27.6107 171.856 27.632C170.768 27.6533 169.584 27.5893 168.304 27.44C164.123 26.8 161.861 24.816 161.52 21.488C161.691 20.5493 162.192 20.3893 163.024 21.008ZM212.048 3.824C212.539 4.016 212.763 4.26133 212.72 4.56C212.656 4.85867 212.4 5.072 211.952 5.2L192.016 5.008C191.653 4.944 191.44 4.70933 191.376 4.304C191.291 3.94133 191.483 3.71733 191.952 3.632L212.048 3.824ZM194.384 10.672C197.648 9.904 200.336 9.552 202.448 9.616C204.517 9.72267 206.395 10.2987 208.08 11.344C209.787 12.4533 210.629 14.3627 210.608 17.072C210.565 19.8027 209.552 22.096 207.568 23.952C205.499 25.8293 202.704 27.3547 199.184 28.528C198.651 28.6773 198.331 28.56 198.224 28.176C198.139 27.8347 198.309 27.5147 198.736 27.216C202.192 26.1067 204.752 24.752 206.416 23.152C207.227 22.3413 207.856 21.456 208.304 20.496C208.773 19.536 209.051 18.4693 209.136 17.296C209.285 14.9707 208.56 13.328 206.96 12.368C206.149 11.92 205.307 11.5787 204.432 11.344C203.557 11.088 202.651 10.9493 201.712 10.928C199.813 10.8853 197.456 11.2693 194.64 12.08C194.043 12.0373 193.755 11.8453 193.776 11.504C193.776 11.1413 193.979 10.864 194.384 10.672Z" fill="white"/>
</svg>
